<?xml version="1.0" encoding="UTF-8" standalone="no"?>
<svg
   xmlns:dc="http://purl.org/dc/elements/1.1/"
   xmlns:cc="http://creativecommons.org/ns#"
   xmlns:rdf="http://www.w3.org/1999/02/22-rdf-syntax-ns#"
   xmlns:svg="http://www.w3.org/2000/svg"
   xmlns="http://www.w3.org/2000/svg"
   xmlns:sodipodi="http://sodipodi.sourceforge.net/DTD/sodipodi-0.dtd"
   xmlns:inkscape="http://www.inkscape.org/namespaces/inkscape"
   height="18"
   width="18"
   version="1.1"
   id="svg4"
   sodipodi:docname="Octicons-git-pull-request.svg"
   inkscape:version="0.92.4 (5da689c313, 2019-01-14)">
  <metadata
     id="metadata10">
    <rdf:RDF>
      <cc:Work
         rdf:about="">
        <dc:format>image/svg+xml</dc:format>
        <dc:type
           rdf:resource="http://purl.org/dc/dcmitype/StillImage" />
        <dc:title></dc:title>
      </cc:Work>
    </rdf:RDF>
  </metadata>
  <defs
     id="defs8" />
  <sodipodi:namedview
     pagecolor="#ffffff"
     bordercolor="#666666"
     borderopacity="1"
     objecttolerance="10"
     gridtolerance="10"
     guidetolerance="10"
     inkscape:pageopacity="0"
     inkscape:pageshadow="2"
     inkscape:window-width="1440"
     inkscape:window-height="837"
     id="namedview6"
     showgrid="false"
     inkscape:zoom="7.375"
     inkscape:cx="39.276997"
     inkscape:cy="7.1184678"
     inkscape:window-x="3592"
     inkscape:window-y="136"
     inkscape:window-maximized="1"
     inkscape:current-layer="svg4" />
  <path
     d="m 13.93786,12.734255 c 0,0 0,-4.7218261 0,-6.2031856 0,-1.4813571 -1.481356,-2.9627141 -2.962716,-2.9627141 -0.9875718,0 -0.9875718,0 -0.9875718,0 V 1.59321 L 7.0248555,4.5559265 9.9875722,7.5186432 V 5.5434979 c 0,0 0.4937858,0 0.9875718,0 0.493785,0 0.98757,0.4937857 0.98757,0.9875715 0,0.4937881 0,6.2031856 0,6.2031856 -0.586368,0.33948 -0.98757,0.972144 -0.98757,1.697393 0,1.095587 0.879558,1.975142 1.975145,1.975142 1.095588,0 1.975143,-0.879555 1.975143,-1.975142 0,-0.725249 -0.401202,-1.357913 -0.987572,-1.697393 z m -0.987571,2.684964 c -0.540078,0 -0.987575,-0.447494 -0.987575,-0.987571 0,-0.540081 0.447497,-0.987574 0.987575,-0.987574 0.540077,0 0.987571,0.447493 0.987571,0.987574 0,0.540077 -0.447494,0.987571 -0.987571,0.987571 z M 5.0497121,2.5807814 c -1.0955894,0 -1.9751444,0.8795577 -1.9751444,1.9751451 0,0.725247 0.4012006,1.3579119 0.9875712,1.6973893 v 6.4655102 c -0.5863706,0.339478 -0.9875712,0.972141 -0.9875712,1.697389 0,1.095588 0.879555,1.975144 1.9751444,1.975144 1.0955875,0 1.9751434,-0.879556 1.9751434,-1.975144 0,-0.725248 -0.4012015,-1.357911 -0.9875712,-1.697389 V 6.2533158 C 6.623654,5.9138384 7.0248555,5.2811735 7.0248555,4.5559265 c 0,-1.0955874 -0.8795559,-1.9751451 -1.9751434,-1.9751451 z m 0,12.8384376 c -0.5400802,0 -0.9875732,-0.447494 -0.9875732,-0.987571 0,-0.540081 0.447493,-0.987574 0.9875732,-0.987574 0.5400782,0 0.9875722,0.447493 0.9875722,0.987574 0,0.540077 -0.447494,0.987571 -0.9875722,0.987571 z m 0,-9.8757211 c -0.5400802,0 -0.9875732,-0.4474934 -0.9875732,-0.9875714 0,-0.5400779 0.447493,-0.9875712 0.9875732,-0.9875712 0.5400782,0 0.9875722,0.4474933 0.9875722,0.9875712 0,0.540078 -0.447494,0.9875714 -0.9875722,0.9875714 z"
     id="path2"
     inkscape:connector-curvature="0"
     style="stroke-width:0.01543081;fill:#cccccc" />
</svg>
